<svg xmlns="http://www.w3.org/2000/svg" xmlns:xlink="http://www.w3.org/1999/xlink" width="480" height="365"><path d="M98.945 345.875v-32.212h4.263v13.228h16.743v-13.227h4.264v32.212h-4.263v-15.183H103.21v15.183z"/><path d="M131.53 345.875v-32.212h4.373l16.92 25.29v-25.29h4.086v32.212h-4.373l-16.92-25.313v25.313z" id="a"/><use transform="translate(255.155 -117.948)" xlink:href="#a"/><path d="M67.05 136.137l-46.5 51.6 21.3 66 67.8 14.4m109.8-23.4l-7.2 69-49.5 10.5m-6.6-107.7l-21.3-66-67.8-14.4m0 0L51.506 88.884M30.45 188.637l18.9 58.5m19.5-101.4l60.3 12.9m-23.4 100.5l41.1-45.6m-37.2 54.6l46.5-51.6m-46.5 51.6l23.1 39.6m23.4-91.2l63.3 28.2m-15.6 62.1l6-57m189.6-60v-48.9m60 103.8l-41.4-24m-37.2 0l-41.4 24-60-34.5-60 34.5M62.804 51.087L91.95 18.84" fill="none" stroke="#000" stroke-width="3"/><path d="M30.373 67.66c0-5.347 1.436-9.532 4.307-12.557 2.87-3.025 6.577-4.538 11.118-4.538 2.974 0 5.655.71 8.042 2.132 2.388 1.42 4.208 3.402 5.46 5.943 1.253 2.542 1.88 5.424 1.88 8.646 0 3.267-.66 6.19-1.978 8.768-1.32 2.578-3.187 4.53-5.603 5.855-2.418 1.325-5.026 1.988-7.824 1.988-3.032 0-5.742-.733-8.13-2.197-2.387-1.464-4.196-3.464-5.427-5.998-1.23-2.534-1.847-5.215-1.847-8.042zm4.395.066c0 3.882 1.044 6.94 3.13 9.173 2.088 2.233 4.707 3.35 7.856 3.35 3.208 0 5.85-1.128 7.92-3.383 2.074-2.256 3.11-5.457 3.11-9.603 0-2.622-.443-4.91-1.33-6.866-.885-1.956-2.18-3.472-3.888-4.548-1.707-1.077-3.622-1.615-5.746-1.615-3.017 0-5.614 1.036-7.79 3.11-2.174 2.072-3.262 5.532-3.262 10.38z"/></svg>