<svg xmlns="http://www.w3.org/2000/svg" width="252" height="148" viewBox="0 0 189 111"><path d="M12.3 51.45l-.95 1L2.7 24.1l1.35.35 8.25 27zM16.55 47.35l-1.2.35-6.7-21.9 1.2-.35 6.7 21.9z" fill="#161413" stroke-width="1.2"/><path d="M39.85 57.8l.2.65-.4.5-28.3-6.5.95-1 27.55 6.35z" fill="#161413" stroke-width="1.2"/><path d="M59.1 37.15l.65.15.15.7-19.1 20.55-.75-.1-.2-.65L59.1 37.15zM53.45 35.5l.9.85L38.7 53.1l-.85-.8 15.6-16.8z" fill="#161413" stroke-width="1.2"/><path d="M50.85 10.15l.95-1.05 8.45 27.75-.5.45-.65-.15-8.25-27zM23.3 3.8l-.4-1.35L51.8 9.1l-.95 1.05L23.3 3.8zM24.75 9.45L25 8.3l22.35 5.15-.3 1.15-22.3-5.15zM4.05 24.45L2.7 24.1 22.9 2.45l.4 1.35L4.05 24.45z" fill="#161413" stroke-width="1.2"/><path d="M59.73 77.105h-1.77v11.973l-7.654-11.973h-2.03V91.75h1.77V79.877l7.573 11.873h2.11V77.104z" fill="#161413" fill-rule="evenodd" stroke-width="1.2"/><path d="M48.95 73.3l-1.05.55-8.25-14.9.4-.5.75.1 8.15 14.75zM81.9 77.7l1.1 1.05-19.35 3.75-.25-1.2 18.5-3.6z" fill="#161413" stroke-width="1.2"/><path d="M85.35 49.85l.65-.35.55.4L83 78.75l-1.1-1.05 3.45-27.85zM79.75 52.55l1.2.15-2.6 21.2-1.2-.15 2.6-21.2zM59.9 38l-.15-.7.5-.45 25.7 12 .05.65-.65.35L59.9 38z" fill="#161413" stroke-width="1.2"/><path d="M111.3 34.8v1.4L86.55 49.9l-.55-.4-.05-.65L111.3 34.8z" fill="#161413" stroke-width="1.2"/><path d="M136.1 49.7l-.05 1.4-24.75-14.9v-1.4l24.8 14.9z" fill="#161413" stroke-width="1.2"/><path d="M167.23 29.605h-1.77v11.973l-7.654-11.974h-2.03V44.25h1.77V32.377l7.573 11.873h2.11V29.604z" fill="#161413" fill-rule="evenodd" stroke-width="1.2"/><path d="M150.75 41.6l.55 1.05-15.25 8.45.05-1.4 14.65-8.1zM186.5 50.75l-.65 1.05-14.4-8.7.65-1 14.4 8.65zM161.3 7.4l1.2.05-.5 19.25h-1.2l.5-19.3z" fill="#161413" stroke-width="1.2"/><path d="M57.57 102.08v6.67h1.867V94.104H57.57v6.33h-7.534v-6.33h-1.87v14.646h1.89v-6.67h7.513z" fill="#161413" fill-rule="evenodd" stroke-width="1.2"/></svg>