<svg xmlns="http://www.w3.org/2000/svg" width="205pt" height="120" viewBox="0 0 205 90"><path d="M49.1 69.8l-.6.35-.65-.45V41.05l.65-.45.6.35V69.8zM54.4 67.05h-1.2v-23.4h1.2v23.4z" fill="#161413" stroke-width="1.25"/><path d="M74.05 84.2v1.4L48.4 70.8l.1-.65.6-.35 24.95 14.4zM99.05 69.8l1.25.7-26.25 15.1v-1.4l25-14.4zM94.05 66.55l.6 1.05L74.4 79.3l-.65-1.05 20.3-11.7z" fill="#161413" stroke-width="1.25"/><path d="M99.05 40.95l.6-.35.65.35V70.5l-1.25-.7V40.95z" fill="#161413" stroke-width="1.25"/><path d="M74.05 26.55V25.1l25.6 14.8v.7l-.6.35-25-14.4zM73.75 32.5l.65-1.1 20.25 11.75-.6 1.05-20.3-11.7z" fill="#161413" stroke-width="1.25"/><path d="M49.1 40.95l-.6-.35-.1-.7 25.65-14.8v1.45L49.1 40.95z" fill="#161413" stroke-width="1.25"/><path d="M20.482 24.295c-4.29 0-7.203 3.16-7.203 7.84 0 4.677 2.913 7.837 7.223 7.837 1.806 0 3.427-.554 4.638-1.58 1.622-1.375 2.586-3.694 2.586-6.135 0-4.822-2.852-7.962-7.244-7.962zm0 1.682c3.243 0 5.335 2.462 5.335 6.24 0 3.61-2.154 6.072-5.314 6.072-3.18 0-5.314-2.463-5.314-6.156 0-3.694 2.132-6.156 5.292-6.156zM20.482 72.045c-4.29 0-7.203 3.16-7.203 7.84 0 4.676 2.913 7.837 7.223 7.837 1.806 0 3.427-.554 4.638-1.58 1.622-1.375 2.586-3.694 2.586-6.135 0-4.822-2.852-7.962-7.244-7.962zm0 1.682c3.243 0 5.335 2.462 5.335 6.24 0 3.61-2.154 6.072-5.314 6.072-3.18 0-5.314-2.463-5.314-6.156 0-3.695 2.132-6.157 5.292-6.157z" fill="#161413" fill-rule="evenodd" stroke-width="1.25"/><path d="M30.35 35.35l.4-1.15 17.65 5.7.1.7-.65.45-17.5-5.7zM3.75 55.35h-1.5l10.9-15 1 .75-10.4 14.25z" fill="#161413" stroke-width="1.25"/><path d="M14.85 70.6l-1 .7-11.6-15.95h1.5l11.1 15.25zM47.85 69.7l.65.45-.1.65-18.05 5.85L30 75.5l17.85-5.8zM125.25 25.1v1.45l-24.95 14.4-.65-.35v-.7l25.6-14.8z" fill="#161413" stroke-width="1.25"/><path d="M150.85 39.9v.7l-.65.35-24.95-14.4V25.1l25.6 14.8z" fill="#161413" stroke-width="1.25"/><path d="M180.307 9.938v6.812h1.908V1.79h-1.908v6.465h-7.696V1.79h-1.907v14.96h1.93V9.937h7.674zM182.256 19.04h-1.806v12.23l-7.818-12.23h-2.072V34h1.805V21.873L180.102 34h2.154V19.04z" fill="#161413" fill-rule="evenodd" stroke-width="1.25"/><path d="M165.55 31.4l.6 1.05-14.7 8.5-.6-.35v-.7l14.7-8.5zM151.45 70.15h-1.25v-29.2l.65-.35.6.35v29.2zM202.35 40.05l-.65 1.05-15.05-8.65.6-1.1 15.1 8.7z" fill="#161413" stroke-width="1.25"/></svg>